<svg id="SvgjsSvg1006" width="5000px" height="3971.909226645893px" xmlns="http://www.w3.org/2000/svg" version="1.1" xmlns:xlink="http://www.w3.org/1999/xlink" xmlns:svgjs="http://svgjs.com/svgjs" viewBox="0 0 180.98739433288574 143.7730941772461"><defs id="SvgjsDefs1007"></defs><g id="SvgjsG1009" transform="rotate(0 64.74369812011719 84.54279518127441)"><svg xmlns="http://www.w3.org/2000/svg" xmlns:xlink="http://www.w3.org/1999/xlink" width="81.890625" viewBox="7.050000190734863 33 81.89999389648438 104.69999694824219" overflow="visible" style="overflow: visible;" transform="" version="1.1" xmlns:svgjs="http://svgjs.com/svgjs" preserveAspectRatio="none" height="104.6875" x="23.798385620117188" y="32.199045181274414" fill="#000000" stroke="none"><path stroke="none" fill="#000000" d="M15.75 137.70L15.75 137.70Q12.15 137.70 9.60 135.15L9.60 135.15L9.60 135.15Q7.05 132.60 7.05 129L7.05 129L7.05 129Q7.05 125.70 8.85 123.45L8.85 123.45L71.55 46.05L13.80 46.05L13.80 46.05Q11.10 46.05 9.22 44.17L9.22 44.17L9.22 44.17Q7.35 42.30 7.35 39.60L7.35 39.60L7.35 39.60Q7.35 36.90 9.22 34.95L9.22 34.95L9.22 34.95Q11.10 33.00 13.80 33.00L13.80 33.00L78.90 33.00L78.90 33.00Q83.10 33.00 85.58 35.70L85.58 35.70L85.58 35.70Q88.05 38.40 88.05 42.30L88.05 42.30L88.05 42.30Q88.05 43.80 87.38 45.45L87.38 45.45L87.38 45.45Q86.70 47.10 85.65 48.30L85.65 48.30L23.70 124.95L82.50 124.95L82.50 124.95Q85.20 124.95 87.08 126.82L87.08 126.82L87.08 126.82Q88.95 128.70 88.95 131.40L88.95 131.40L88.95 131.40Q88.95 134.10 87.08 135.90L87.08 135.90L87.08 135.90Q85.20 137.70 82.50 137.70L82.50 137.70L15.75 137.70Z" transform="rotate(115 47.99999713897705 85.3499984741211)"></path><defs id="SvgjsDefs1008"></defs></svg></g><g id="SvgjsG1011" transform="rotate(0 116.24369812011719 59.230295181274414)"><svg xmlns="http://www.w3.org/2000/svg" xmlns:xlink="http://www.w3.org/1999/xlink" width="81.890625" viewBox="7.050000190734863 33 81.89999389648438 104.69999694824219" overflow="visible" style="overflow: visible;" transform="" version="1.1" xmlns:svgjs="http://svgjs.com/svgjs" preserveAspectRatio="none" height="104.6875" x="75.29838562011719" y="6.886545181274414" fill="#000000" stroke="none"><path stroke="none" fill="#000000" d="M15.75 137.70L15.75 137.70Q12.15 137.70 9.60 135.15L9.60 135.15L9.60 135.15Q7.05 132.60 7.05 129L7.05 129L7.05 129Q7.05 125.70 8.85 123.45L8.85 123.45L71.55 46.05L13.80 46.05L13.80 46.05Q11.10 46.05 9.22 44.17L9.22 44.17L9.22 44.17Q7.35 42.30 7.35 39.60L7.35 39.60L7.35 39.60Q7.35 36.90 9.22 34.95L9.22 34.95L9.22 34.95Q11.10 33.00 13.80 33.00L13.80 33.00L78.90 33.00L78.90 33.00Q83.10 33.00 85.58 35.70L85.58 35.70L85.58 35.70Q88.05 38.40 88.05 42.30L88.05 42.30L88.05 42.30Q88.05 43.80 87.38 45.45L87.38 45.45L87.38 45.45Q86.70 47.10 85.65 48.30L85.65 48.30L23.70 124.95L82.50 124.95L82.50 124.95Q85.20 124.95 87.08 126.82L87.08 126.82L87.08 126.82Q88.95 128.70 88.95 131.40L88.95 131.40L88.95 131.40Q88.95 134.10 87.08 135.90L87.08 135.90L87.08 135.90Q85.20 137.70 82.50 137.70L82.50 137.70L15.75 137.70Z" transform="rotate(115 47.99999713897705 85.3499984741211)"></path><defs id="SvgjsDefs1010"></defs></svg></g></svg>